<svg width="37" height="11" viewBox="0 0 37 11" fill="none" xmlns="http://www.w3.org/2000/svg">
<path d="M0.0532307 2.17847C-0.065513 1.9547 0.0144079 1.78114 0.292993 1.65783C0.557889 1.53909 0.834189 1.37239 1.12191 1.15774C1.40968 0.943095 1.64488 0.721592 1.82757 0.493234C2.03301 0.237477 2.22943 0.109604 2.41663 0.109604H3.50596C3.77994 0.109604 3.91693 0.246617 3.91693 0.520642V9.56335C3.91693 9.83744 3.77994 9.97443 3.50596 9.97443H2.40982C2.13583 9.97443 1.99884 9.83744 1.99884 9.56335V3.0485C1.99884 2.86582 2.00796 2.68313 2.0262 2.50045H1.99884C1.85723 2.67857 1.7019 2.83157 1.53294 2.95944C1.36398 3.08732 1.19271 3.18779 1.01915 3.26087C0.804505 3.35221 0.642379 3.29283 0.532765 3.08276L0.0532307 2.17847ZM7.60642 2.17847C7.48766 1.9547 7.56753 1.78114 7.84613 1.65783C8.11109 1.53909 8.38738 1.37239 8.6751 1.15774C8.96281 0.943095 9.19802 0.721592 9.38071 0.493234C9.58624 0.237477 9.78256 0.109604 9.96986 0.109604H11.0591C11.3331 0.109604 11.4701 0.246617 11.4701 0.520642V9.56335C11.4701 9.83744 11.3331 9.97443 11.0591 9.97443H9.96295C9.68896 9.97443 9.55197 9.83744 9.55197 9.56335V3.0485C9.55197 2.86582 9.56109 2.68313 9.57933 2.50045H9.55197C9.41037 2.67857 9.25514 2.83157 9.08608 2.95944C8.91711 3.08732 8.74585 3.18779 8.57228 3.26087C8.35772 3.35221 8.19557 3.29283 8.08594 3.08276L7.60642 2.17847ZM15.6871 9.97443C15.3674 9.97443 15.2076 9.80316 15.2076 9.46063V8.54267C15.2076 8.20014 15.3674 8.02887 15.6871 8.02887H16.7283C17.048 8.02887 17.2079 8.20014 17.2079 8.54267V9.46063C17.2079 9.80316 17.048 9.97443 16.7283 9.97443H15.6871ZM15.6871 4.72689C15.3674 4.72689 15.2076 4.55562 15.2076 4.2131V3.29512C15.2076 2.95259 15.3674 2.78133 15.6871 2.78133H16.7283C17.048 2.78133 17.2079 2.95259 17.2079 3.29512V4.2131C17.2079 4.55562 17.048 4.72689 16.7283 4.72689H15.6871ZM20.4315 5.10367C20.4315 3.25402 20.7192 1.94099 21.2947 1.16459C21.8701 0.388189 22.7516 0 23.939 0C25.1264 0 26.0078 0.388189 26.5833 1.16459C27.1588 1.94099 27.4465 3.25402 27.4465 5.10367C27.4465 6.95332 27.1588 8.26638 26.5833 9.04274C26.0078 9.8192 25.1264 10.2073 23.939 10.2073C22.7516 10.2073 21.8701 9.8192 21.2947 9.04274C20.7192 8.26638 20.4315 6.95332 20.4315 5.10367ZM22.4592 5.10367C22.4592 5.94858 22.5278 6.76151 22.6648 7.54247C22.8064 8.3234 23.2311 8.71394 23.939 8.71394C24.6469 8.71394 25.0693 8.3234 25.2063 7.54247C25.3479 6.76151 25.4187 5.94858 25.4187 5.10367C25.4187 4.25877 25.3479 3.44583 25.2063 2.66486C25.0693 1.8839 24.6469 1.49342 23.939 1.49342C23.2311 1.49342 22.8064 1.8839 22.6648 2.66486C22.5278 3.44583 22.4592 4.25877 22.4592 5.10367ZM29.9713 3.30197C29.9713 2.29722 30.2568 1.49571 30.8276 0.897417C31.3985 0.299139 32.2708 0 33.4445 0C34.6959 0 35.6002 0.420167 36.1574 1.2605C36.7191 2.09627 37 3.28599 37 4.82965C37 6.88939 36.6301 8.30065 35.8902 9.06328C35.155 9.82601 34.2255 10.2073 33.102 10.2073C32.6635 10.2073 32.2274 10.1434 31.7936 10.0155C31.3597 9.89225 31.0263 9.7278 30.7933 9.52226C30.5742 9.32594 30.5262 9.13413 30.6495 8.94683L31.1017 8.26868C31.2478 8.04481 31.4602 8.04481 31.7388 8.26868C31.8758 8.37822 32.0745 8.47412 32.3347 8.5564C32.5996 8.63396 32.876 8.67285 33.1637 8.67285C33.6432 8.67285 34.084 8.44907 34.4858 8.00141C34.8877 7.54933 35.0887 6.78434 35.0887 5.70652H35.0613C34.8557 6.01708 34.5703 6.24086 34.2049 6.37787C33.8397 6.51032 33.3943 6.57655 32.8691 6.57655C31.9146 6.57655 31.193 6.2637 30.7044 5.63801C30.2156 5.00777 29.9713 4.22908 29.9713 3.30197ZM32.0265 3.31567C32.0265 3.91852 32.1406 4.35696 32.369 4.63098C32.5974 4.90501 32.9171 5.04201 33.3281 5.04201C33.7802 5.04201 34.1296 4.85705 34.3762 4.48712C34.6274 4.11718 34.753 3.71072 34.753 3.26772C34.753 2.71054 34.6389 2.28352 34.4105 1.98666C34.1821 1.68524 33.8488 1.53452 33.4103 1.53452C32.9444 1.53452 32.5974 1.66012 32.369 1.9113C32.1406 2.16249 32.0265 2.63062 32.0265 3.31567Z" fill="white"/>
</svg>
